# xmcd
# Track frame offsets:
# 150
# 8507
# 27454
# 40285
# 54073
# 73508
# 91141
# 116064
# 132235
# 148822
# 167173
# 187605
#
# Disc length: 2760 seconds
# Revision: 0
# Processed by: cddbd v1.5.2PL0 Copyright (c) Steve Scherf et al.
# Submitted via: VisiTrax 2.11.0.264 - For more info visit www.synapsa.com
#
DISCID=960ac60c
DTITLE=LIncoln Le Fevre And The Insiders - 30- Watt Heart
DYEAR=2008
DGENRE=
TTITLE0=morning ( I gotta go )
TTITLE1=Hey, Alright
TTITLE2=miami
TTITLE3=sweet sin
TTITLE4=holy rose
TTITLE5=where the poppies used to grow
TTITLE6=cute girls are stupid
TTITLE7=september
TTITLE8=how did we get it so wrong?
TTITLE9=I know
TTITLE10=Blues for jen
TTITLE11=painting our names
EXTD=
EXTT0=
EXTT1=
EXTT2=
EXTT3=
EXTT4=
EXTT5=
EXTT6=
EXTT7=
EXTT8=
EXTT9=
EXTT10=
EXTT11=
PLAYORDER=
